<?xml version="1.0" encoding="UTF-8"?>
<!DOCTYPE svg PUBLIC "-//W3C//DTD SVG 1.1//EN" "http://www.w3.org/Graphics/SVG/1.1/DTD/svg11.dtd">
<!-- Creator: CorelDRAW 2017 -->
<svg xmlns="http://www.w3.org/2000/svg" xml:space="preserve" width="54.3146mm" height="46.3058mm" version="1.1" style="shape-rendering:geometricPrecision; text-rendering:geometricPrecision; image-rendering:optimizeQuality; fill-rule:evenodd; clip-rule:evenodd"
viewBox="0 0 5515.87 4702.55"
 xmlns:xlink="http://www.w3.org/1999/xlink">
 <defs>
  <style type="text/css">
   <![CDATA[
    .str4 {stroke:#FFFE56;stroke-width:18.76;stroke-miterlimit:22.9256}
    .str3 {stroke:#FFFE56;stroke-width:26.6;stroke-miterlimit:22.9256}
    .str2 {stroke:#FFFE56;stroke-width:26.64;stroke-miterlimit:22.9256}
    .str0 {stroke:#FFFE56;stroke-width:11.78;stroke-miterlimit:22.9256}
    .str5 {stroke:#E97B23;stroke-width:20.31;stroke-miterlimit:22.9256}
    .str1 {stroke:#FFFE56;stroke-width:20.31;stroke-miterlimit:22.9256}
    .fil2 {fill:none}
    .fil6 {fill:#E3656B}
    .fil5 {fill:#E97B23}
    .fil0 {fill:#FFFE56}
    .fil3 {fill:#E1454D;fill-rule:nonzero}
    .fil4 {fill:#E97B23;fill-rule:nonzero}
    .fil1 {fill:url(#id0)}
   ]]>
  </style>
  <radialGradient id="id0" gradientUnits="userSpaceOnUse" gradientTransform="matrix(0.990087 -0 -0 0.987004 27 30)" cx="2715.73" cy="2301.31" r="1741.65" fx="2715.73" fy="2301.31">
   <stop offset="0" style="stop-opacity:1; stop-color:yellow"/>
   <stop offset="1" style="stop-opacity:1; stop-color:#F6BD23"/>
  </radialGradient>
 </defs>
 <g id="Слой_x0020_1">
  <metadata id="CorelCorpID_0Corel-Layer"/>
  <g id="_1276685120">
   <g>
    <ellipse class="fil0 str0" transform="matrix(-0.444044 0.373113 -0.373113 -0.444044 4683.95 2260.69)" rx="255.26" ry="127.62"/>
    <ellipse class="fil0 str0" transform="matrix(-0.444044 0.373113 -0.373113 -0.444044 2964.23 561.686)" rx="255.26" ry="127.62"/>
    <ellipse class="fil0 str1" transform="matrix(-0.902442 0.430811 -0.430811 -0.902442 5036.65 1747.43)" rx="255.26" ry="127.62"/>
    <ellipse class="fil0 str2" transform="matrix(-1.07915 0.745333 -0.745333 -1.07915 5041.62 489.989)" rx="255.26" ry="127.62"/>
    <ellipse class="fil0 str3" transform="matrix(-1.18175 0.564147 -0.564147 -1.18175 5192.43 1126.23)" rx="255.26" ry="127.62"/>
    <ellipse class="fil0 str3" transform="matrix(-0.970734 0.878902 -0.878902 -0.970734 4334.6 269.616)" rx="255.26" ry="127.62"/>
    <ellipse class="fil0 str4" transform="matrix(-0.707053 0.594109 -0.594109 -0.707053 3592.45 279.568)" rx="255.26" ry="127.62"/>
   </g>
   <ellipse class="fil0 str0" transform="matrix(0.444044 -0.373113 0.373113 0.444044 831.952 2441.86)" rx="255.26" ry="127.62"/>
   <ellipse class="fil0 str0" transform="matrix(0.444044 -0.373113 0.373113 0.444044 2551.62 4140.86)" rx="255.26" ry="127.62"/>
   <circle class="fil1" cx="2715.73" cy="2301.31" r="1777.2"/>
   <circle class="fil2" cx="2715.1" cy="2299.55" r="1491.84"/>
   <path class="fil3" d="M996.89 2330.69l4.78 -141.37 225.78 7.71 -1.02 29.84 -199.15 -6.76 -2.75 81.65 116.28 3.92c23.58,0.8 40.88,2.52 51.75,5.09 10.93,2.61 19.31,7.52 25.2,14.83 5.84,7.25 8.62,16.38 8.22,27.22 -0.21,6.58 -1.69,14.46 -4.5,23.59l-26.32 -5.93c2.24,-4.88 3.43,-9.03 3.51,-12.56 0.26,-6.78 -2.11,-11.9 -7.09,-15.48 -4.97,-3.55 -16.9,-5.65 -35.79,-6.33l-158.9 -5.4z"/>
   <path id="_1" class="fil3" d="M1193.01 2033.43l7.29 -27.91c15.96,6.64 27.76,16.64 35.34,29.99 7.52,13.34 10.07,29.42 7.57,48.24 -3.15,23.73 -12.96,41.58 -29.38,53.51 -16.47,11.98 -37.85,16.21 -64.26,12.72 -27.25,-3.6 -47.52,-13.48 -60.72,-29.47 -13.18,-16.07 -18.32,-35.3 -15.38,-57.7 2.88,-21.67 12.63,-38.42 29.21,-50.19 16.58,-11.82 38.3,-15.93 65.06,-12.35 1.64,0.21 4.05,0.6 7.31,1.09l-16.05 120.97c17.93,1.34 32.27,-1.91 42.94,-9.71 10.67,-7.79 16.87,-18.45 18.67,-32.02 1.35,-10.09 -0.13,-19.05 -4.52,-26.85 -4.34,-7.81 -12.03,-14.58 -23.07,-20.32zm-56.41 84.39l12.02 -90.58c-13.84,-0.59 -24.53,1.52 -32.08,6.33 -11.76,7.32 -18.55,17.98 -20.39,31.92 -1.7,12.62 1.1,23.84 8.43,33.56 7.32,9.72 17.99,15.96 32.02,18.77z"/>
   <path id="_2" class="fil3" d="M1094.25 1961.43l6.25 -27.05 30.17 6.95c12.99,3.01 22.63,4.43 28.83,4.21 6.22,-0.22 12.22,-2.74 17.89,-7.64 5.74,-4.89 9.64,-11.84 11.68,-20.74 2.38,-10.21 2.68,-24.06 1.06,-41.53l-72.27 -16.68 6.26 -26.99 159.47 36.76 -6.2 27.05 -64.31 -14.84c1.37,17.84 0.43,33.95 -2.88,48.37 -2.84,12.1 -8.37,22.1 -16.69,29.95 -8.27,7.84 -17.26,12.37 -26.94,13.63 -9.63,1.22 -19.84,0.64 -30.58,-1.84l-41.73 -9.63z"/>
   <path id="_3" class="fil3" d="M1288.17 1705.36l13.63 -25.42c13.98,10.25 23.08,22.75 27.32,37.45 4.22,14.75 2.88,30.96 -3.97,48.72 -8.59,22.28 -22.31,37.34 -41.09,45.13 -18.82,7.74 -40.62,6.81 -65.44,-2.76 -25.66,-9.89 -43.05,-24.22 -52.1,-42.88 -9.1,-18.72 -9.59,-38.6 -1.4,-59.67 7.89,-20.43 21.25,-34.44 40.13,-41.97 18.88,-7.58 40.94,-6.5 66.12,3.23 1.53,0.62 3.81,1.55 6.87,2.79l-43.98 113.84c17.14,5.54 31.83,5.73 44,0.63 12.22,-5.05 20.78,-13.96 25.72,-26.75 3.66,-9.44 4.26,-18.51 1.88,-27.17 -2.4,-8.62 -8.31,-16.99 -17.69,-25.18zm-74.63 68.79l32.91 -85.22c-13.29,-3.78 -24.14,-4.27 -32.64,-1.36 -13.18,4.38 -22.26,13.14 -27.31,26.29 -4.64,11.88 -4.49,23.4 0.35,34.57 4.83,11.17 13.69,19.72 26.69,25.72z"/>
   <path id="_4" class="fil3" d="M1211.42 1456.75l11.53 -21.65c9.25,6.06 14.92,11.76 17.01,17.08 2.15,5.32 2.41,10.85 0.75,16.69 -1.58,5.78 -6.4,16.36 -14.27,31.71 -10.52,20.35 -15.76,35.22 -15.62,44.7 0.08,9.41 3.6,17.95 10.57,25.65 6.94,7.69 17.12,15.23 30.53,22.64 -6.02,-10.96 -9.16,-21.8 -9.51,-32.49 -0.29,-10.68 2.2,-21.27 7.59,-31.66 9.89,-19.08 24.6,-31.47 44.14,-37.22 19.59,-5.75 40.53,-2.82 62.87,8.7 16.98,8.76 29.28,19.11 36.88,31.01 7.61,11.92 12.17,23.77 13.66,35.45 1.44,11.69 -1.62,24.94 -9.34,39.82 -8.88,17.24 -19.79,28.65 -32.6,34.14 -12.86,5.5 -26.8,7.63 -41.74,6.39 -14.95,-1.25 -37.73,-9.76 -68.32,-25.56 -38.44,-19.87 -60.97,-39.76 -67.56,-59.61 -6.59,-19.91 -2.89,-43.37 11.04,-70.4 8.67,-16.77 13.32,-26.44 13.96,-29.01 0.64,-2.59 0.11,-4.69 -1.57,-6.38zm131.64 69.53c-15.19,-7.82 -29.45,-10.63 -42.83,-8.46 -13.37,2.18 -23.44,9.8 -30.15,22.84 -7.02,13.61 -7.36,26.72 -0.97,39.41 6.45,12.64 18.16,23.4 35.25,32.23 16.87,8.71 31.92,11.32 45.09,7.78 13.16,-3.56 22.81,-11.33 28.99,-23.32 6.29,-12.2 6.26,-24.83 -0.19,-37.78 -6.39,-12.97 -18.16,-23.89 -35.19,-32.71z"/>
   <polygon id="_5" class="fil3" points="1314.38,1413.42 1330.63,1390.96 1385.83,1430.94 1430.96,1368.64 1375.78,1328.65 1392.04,1306.2 1524.66,1402.21 1508.33,1424.67 1449.55,1382.08 1404.41,1444.39 1463.26,1486.98 1446.94,1509.49 "/>
   <path id="_6" class="fil3" d="M1480.2 1322.34c-22.92,-19.86 -34.39,-40.9 -34.37,-63.16 0.07,-18.57 6.73,-35.53 19.96,-50.83 14.72,-16.96 32.32,-26.05 52.8,-27.2 20.52,-1.14 40.59,6.82 60.19,23.79 15.92,13.82 26.36,27 31.33,39.68 5.03,12.67 6.1,25.78 3.23,39.26 -2.86,13.53 -8.96,25.64 -18.3,36.45 -15.02,17.28 -32.69,26.48 -53,27.57 -20.36,1.04 -40.97,-7.46 -61.84,-25.57zm18.66 -21.56c15.81,13.76 30.67,20.56 44.55,20.49 13.84,-0.12 25.31,-5.41 34.4,-15.85 8.98,-10.44 12.54,-22.49 10.62,-36.28 -1.92,-13.78 -11,-27.66 -27.24,-41.74 -15.28,-13.24 -29.87,-19.79 -43.77,-19.66 -13.93,0.13 -25.35,5.36 -34.27,15.64 -9.09,10.49 -12.7,22.61 -10.84,36.29 1.87,13.72 10.67,27.4 26.55,41.11z"/>
   <polygon id="_7" class="fil3" points="1612.7,1196.3 1593.63,1175.97 1655.73,1117.63 1674.82,1137.96 "/>
   <path id="_8" class="fil3" d="M1622.56 973.99l107.86 -85.08 123.32 156.38 15.96 -12.62 49.12 62.28 -20.95 16.48 -32.59 -41.32 -117.21 92.41 32.64 41.32 -20.9 16.54 -49.12 -62.28 13.76 -10.88c-2.72,-32.78 -29.86,-81.92 -81.46,-147.34l-20.43 -25.9zm100.91 -45.65l-61.82 48.76 7.19 9.03c11.88,15.08 26.79,36.77 44.71,65.09 17.91,28.26 29.56,53.97 34.94,77.05l81.76 -64.48 -106.79 -135.44z"/>
   <polygon id="_9" class="fil3" points="1833.99,896.9 1858.06,883.09 1920.08,991.35 1924.77,844.9 1950.67,830.05 2031.96,971.97 2007.92,985.78 1946.27,878.2 1941.23,1023.97 1915.26,1038.82 "/>
   <path id="_10" class="fil3" d="M2158.59 891.15c-5.72,12.2 -12.14,21.92 -19.24,29.17 -7.18,7.2 -15.67,13.09 -25.59,17.62 -16.32,7.5 -30.73,9.27 -43.18,5.29 -12.44,-3.92 -21.49,-12.14 -27.19,-24.53 -3.36,-7.3 -4.71,-14.72 -4.17,-22.3 0.53,-7.52 2.7,-14.33 6.4,-20.44 3.71,-6.08 8.47,-11.63 14.33,-16.55 4.36,-3.61 11.27,-8.29 20.72,-14.07 19.23,-11.8 32.86,-21.56 40.99,-29.34 -1.5,-3.47 -2.46,-5.73 -2.88,-6.62 -4.74,-10.29 -10.4,-16.41 -17.1,-18.48 -9.07,-2.73 -19.96,-1.2 -32.65,4.66 -11.87,5.43 -19.68,11.54 -23.44,18.24 -3.74,6.76 -4.53,16.03 -2.42,27.85l-26.21 7.94c-2.6,-11.61 -2.81,-21.82 -0.65,-30.68 2.16,-8.79 7.32,-17.19 15.44,-25.19 8.11,-7.95 18.54,-14.85 31.35,-20.71 12.71,-5.86 23.69,-9.08 33.01,-9.71 9.31,-0.63 16.89,0.43 22.7,3.23 5.8,2.81 11.04,7.36 15.7,13.6 2.81,3.88 6.81,11.43 11.92,22.68l15.41 33.59c10.76,23.46 18.11,38.05 22.04,43.77 3.93,5.71 8.74,10.67 14.56,14.91l-26.35 12.1c-5.03,-4.01 -9.48,-9.35 -13.47,-16.03zm-27.89 -55.37c-7.48,7.94 -19.74,17.38 -36.84,28.43 -9.69,6.2 -16.24,11.24 -19.7,15.1 -3.45,3.81 -5.47,8.09 -6.18,12.72 -0.66,4.69 -0.01,9.21 1.97,13.63 3.09,6.71 8.22,11.16 15.4,13.27 7.11,2.17 15.58,1.02 25.39,-3.51 9.72,-4.42 17.37,-10.52 23.01,-18.24 5.64,-7.71 8.48,-16.1 8.69,-25.09 0.06,-6.96 -2.41,-15.93 -7.53,-27.06l-4.2 -9.24z"/>
   <polygon id="_11" class="fil3" points="2181.36,732.67 2270.72,703.14 2277.92,724.92 2214.87,745.79 2259.06,879.34 2232.71,888.04 "/>
   <polygon id="_12" class="fil3" points="2306.06,695.06 2333.05,688.79 2348.37,755.22 2423.32,737.9 2408,671.53 2435.05,665.26 2471.84,824.78 2444.84,831 2428.48,760.26 2353.54,777.58 2369.9,848.31 2342.85,854.53 "/>
   <path id="_13" class="fil3" d="M2496.63 738.27c-2.45,-30.19 4.15,-53.29 19.73,-69.17 13.08,-13.23 29.66,-20.71 49.87,-22.3 22.41,-1.87 41.34,4.02 56.79,17.55 15.45,13.55 24.19,33.28 26.29,59.22 1.71,20.98 -0.08,37.73 -5.42,50.29 -5.3,12.55 -13.71,22.66 -25.24,30.3 -11.48,7.6 -24.35,11.99 -38.6,13.18 -22.83,1.83 -41.87,-3.96 -57.16,-17.49 -15.28,-13.49 -24.05,-34.02 -26.26,-61.58zm28.4 -2.33c1.71,20.94 7.54,36.21 17.49,45.83 10.01,9.68 21.87,13.92 35.71,12.84 13.73,-1.14 24.75,-7.29 32.99,-18.45 8.25,-11.21 11.52,-27.49 9.81,-48.9 -1.65,-20.21 -7.47,-35.12 -17.48,-44.79 -10.06,-9.63 -21.87,-13.92 -35.5,-12.79 -13.78,1.13 -24.85,7.19 -33.15,18.29 -8.26,11.11 -11.53,27.07 -9.87,47.96z"/>
   <path id="_14" class="fil3" d="M2797.53 750.95l27.13 4.48c-3.57,18.66 -11.73,33.12 -24.34,43.33 -12.65,10.23 -27.91,15 -45.74,14.39 -22.36,-0.76 -40.13,-8.69 -53.22,-23.79 -13.1,-15.05 -19.2,-36.24 -18.25,-63.56 0.56,-17.67 4.04,-33.02 10.31,-46.08 6.32,-13.05 15.55,-22.67 27.75,-28.89 12.21,-6.22 25.33,-9.06 39.37,-8.58 17.73,0.61 32.12,5.57 43.1,14.92 11.04,9.39 17.83,22.4 20.43,39.06l-27.08 3.2c-2.17,-11.06 -6.47,-19.47 -12.8,-25.26 -6.33,-5.73 -14.1,-8.79 -23.35,-9.13 -13.94,-0.47 -25.45,4.17 -34.53,13.89 -9.08,9.72 -13.98,25.36 -14.74,47.04 -0.75,22 2.91,38.07 11.04,48.35 8.08,10.22 18.88,15.57 32.41,16.05 10.89,0.35 20.12,-2.64 27.59,-9.11 7.53,-6.41 12.5,-16.52 14.92,-30.3z"/>
   <polygon id="_15" class="fil3" points="2853.24,648.71 2985.05,666.16 2982.02,688.89 2929.83,681.98 2911.34,821.42 2883.98,817.78 2902.49,678.39 2850.25,671.44 "/>
   <polygon id="_16" class="fil3" points="3027.02,672.75 3054.02,679.06 3025.75,800.58 3128.91,696.48 3158.02,703.22 3120.91,862.59 3093.91,856.27 3122.02,735.54 3019.07,838.85 2989.97,832.11 "/>
   <path id="_17" class="fil3" d="M3202.95 716.83l26.3 8.75 -9.79 29.42c-4.19,12.65 -6.52,22.14 -6.91,28.35 -0.39,6.15 1.59,12.36 5.95,18.54 4.35,6.13 10.84,10.63 19.54,13.53 9.96,3.32 23.7,4.98 41.23,4.95l23.42 -70.34 26.31 8.75 -51.66 155.33 -26.3 -8.76 20.83 -62.58c-17.89,-0.32 -33.86,-2.82 -47.88,-7.48 -11.81,-3.93 -21.2,-10.42 -28.25,-19.38 -7.05,-9.01 -10.73,-18.36 -11.05,-28.15 -0.31,-9.73 1.26,-19.79 4.73,-30.23l13.53 -40.7z"/>
   <path id="_18" class="fil3" d="M3439.55 935.89l23.81 16.32c-11.67,12.82 -25.09,20.51 -40.21,23.11 -15.12,2.61 -31.12,-0.48 -47.98,-9.2 -21.23,-10.99 -34.74,-26.22 -40.43,-45.76 -5.7,-19.54 -2.45,-41.11 9.77,-64.77 12.63,-24.44 28.76,-40.2 48.3,-47.21 19.6,-7.01 39.43,-5.34 59.52,5.07 19.45,10.04 31.89,24.86 37.37,44.45 5.48,19.59 2.02,41.41 -10.35,65.44 -0.79,1.42 -1.95,3.64 -3.53,6.48l-108.46 -56.02c-7.34,16.45 -9.12,31.03 -5.4,43.73 3.76,12.68 11.69,22.12 23.82,28.4 9.05,4.65 18,6.31 26.83,4.85 8.8,-1.46 17.81,-6.45 26.93,-14.9zm-60.35 -81.65l81.22 41.95c5.19,-12.83 6.84,-23.56 4.85,-32.34 -2.92,-13.54 -10.62,-23.55 -23.14,-30 -11.3,-5.86 -22.77,-6.99 -34.41,-3.38 -11.64,3.61 -21.13,11.54 -28.53,23.77z"/>
   <path id="_19" class="fil3" d="M3593.78 1019.08l21.16 17.61c-12.54,14.29 -26.92,22.64 -42.96,25.04 -16.04,2.41 -31.64,-1.18 -46.76,-10.72 -18.91,-11.99 -30.21,-27.82 -33.85,-47.49 -3.64,-19.66 1.81,-41 16.46,-64.09 9.44,-14.89 20.22,-26.42 32.22,-34.45 12.06,-8.07 24.87,-11.73 38.56,-10.92 13.64,0.82 26.4,5.01 38.29,12.52 15.06,9.55 24.91,21.11 29.62,34.77 4.76,13.6 4.06,28.28 -2.11,43.95l-25 -10.91c3.72,-10.65 4.3,-20.08 1.72,-28.27 -2.51,-8.2 -7.66,-14.75 -15.48,-19.69 -11.83,-7.46 -24.1,-9.33 -36.82,-5.52 -12.77,3.76 -24.91,14.83 -36.53,33.11 -11.74,18.59 -16.76,34.37 -14.94,47.24 1.76,12.94 8.4,23.05 19.8,30.3 9.25,5.84 18.69,7.89 28.4,6.15 9.73,-1.75 19.16,-7.96 28.2,-18.65z"/>
   <path id="_20" class="fil3" d="M3704.13 971.92l21.74 17.21 -43.89 55.46c6.94,5.43 12.87,7.98 17.71,7.53 4.89,-0.47 15.12,-4.97 30.62,-13.5 12.29,-6.75 21.08,-10.72 26.23,-11.81 5.22,-1.15 10.01,-0.87 14.37,0.72 4.37,1.58 10.36,5.45 18.03,11.52l4.31 3.43 -14.21 17.96 -5.93 -4.85c-5.74,-4.55 -10.09,-6.61 -13.04,-6.19 -3.05,0.46 -9.86,3.65 -20.24,9.73 -9.91,5.76 -17.55,9.16 -22.82,10.2 -5.27,1.04 -11.84,0.65 -19.68,-1.21 7.4,9.85 9.68,25.87 6.93,47.85l-7.71 58.61 -23.88 -18.96 8.27 -58.09c1.55,-11.73 1.57,-20.25 0.02,-25.56 -1.51,-5.37 -4.76,-9.96 -9.65,-13.87l-46.96 59.28 -21.74 -17.16 101.52 -128.28z"/>
   <polygon id="_21" class="fil3" points="3822.44,1068.25 3842.59,1087.28 3756.87,1178.14 3898.57,1140.08 3920.33,1160.61 3807.94,1279.7 3787.77,1260.67 3872.93,1170.39 3731.8,1207.88 3710.04,1187.33 "/>
   <path id="_22" class="fil3" d="M3963.95 1210.15l17.17 21.79 -97.93 77.22 145.52 -16.89 18.54 23.48 -128.45 101.25 -17.16 -21.73 97.35 -76.81 -144.94 16.47 -18.49 -23.47 128.38 -101.32zm108.17 37.11l11.72 14.87c-11.04,6.76 -21.71,9.16 -31.98,7.24 -10.27,-1.86 -19.44,-7.94 -27.47,-18.18 -8.13,-10.35 -12,-20.7 -11.51,-31.08 0.49,-10.42 5.35,-20.22 14.59,-29.46l11.73 14.91c-4.62,5.44 -6.92,10.93 -7.01,16.4 -0.04,5.46 2.14,11.04 6.57,16.67 5.18,6.5 10.4,10.44 15.62,11.68 5.26,1.31 11.15,0.29 17.73,-3.05z"/>
   <polygon id="_23" class="fil3" points="4196.3,1423.4 4209.93,1449.95 4032.7,1541.15 4086.61,1645.88 4263.83,1554.72 4277.57,1581.42 4100.36,1672.59 4109.81,1690.99 4030.27,1731.82 4018.16,1708.28 4073.95,1679.58 3995.32,1526.75 "/>
   <path id="_24" class="fil3" d="M4183.18 1822.38l5.64 28.34c-17.33,0.96 -32.3,-2.91 -44.88,-11.61 -12.64,-8.7 -21.95,-22.07 -27.9,-40.14 -7.52,-22.73 -6.46,-43.04 3.12,-60.98 9.57,-17.94 26.99,-31.07 52.25,-39.4 26.15,-8.65 48.69,-8.64 67.52,0.04 18.91,8.67 31.88,23.74 38.98,45.2 6.89,20.78 5.41,40.08 -4.36,57.93 -9.78,17.83 -27.54,31 -53.16,39.5 -1.58,0.52 -3.9,1.25 -7.07,2.17l-38.33 -115.88c-16.72,6.64 -28.18,15.8 -34.41,27.45 -6.16,11.7 -7.13,24.02 -2.82,36.98 3.16,9.66 8.43,17.05 15.77,22.2 7.29,5.14 17.17,7.88 29.64,8.21zm13.94 -100.51l28.71 86.74c12.65,-5.51 21.38,-12.05 26.1,-19.65 7.38,-11.75 8.87,-24.32 4.41,-37.67 -3.98,-12.07 -11.35,-20.9 -22.23,-26.49 -10.81,-5.59 -23.12,-6.54 -36.99,-2.93z"/>
   <polygon id="_25" class="fil3" points="4313.15,1862.57 4319.41,1889.57 4252.99,1904.88 4270.3,1979.83 4336.68,1964.51 4342.94,1991.57 4183.42,2028.35 4177.21,2001.36 4247.94,1985 4230.62,1910.05 4159.89,1926.41 4153.68,1899.37 "/>
   <polygon id="_26" class="fil3" points="4349.89,2033.79 4367.13,2165.7 4344.36,2168.66 4337.56,2116.37 4197.96,2134.66 4194.42,2107.25 4333.97,2089.01 4327.11,2036.73 "/>
   <path id="_27" class="fil3" d="M4142.21 2215.61l226.25 -7.29 0.83 25.26 -21.26 0.69c8.51,5.68 14.93,12.2 19.36,19.59 4.37,7.33 6.76,16.37 7.1,27.04 0.43,13.95 -2.73,26.39 -9.6,37.28 -6.8,10.96 -16.7,19.3 -29.64,25.19 -12.9,5.84 -27.15,9.06 -42.76,9.55 -16.74,0.55 -31.91,-1.96 -45.48,-7.55 -13.58,-5.58 -24.17,-13.96 -31.62,-25.18 -7.5,-11.25 -11.5,-23.17 -11.9,-35.8 -0.28,-9.21 1.38,-17.59 5.07,-25.04 3.67,-7.49 8.41,-13.64 14.22,-18.58l-79.66 2.58 -0.9 -27.73zm144.36 20.51c-21.04,0.63 -36.48,5.44 -46.25,14.25 -9.78,8.87 -14.48,19.33 -14.08,31.42 0.37,12.37 5.92,22.75 16.61,31.19 10.74,8.44 26.99,12.32 48.88,11.57 20.83,-0.63 36.33,-5.44 46.41,-14.36 10.08,-8.93 14.96,-19.33 14.55,-31.23 -0.36,-11.78 -6.23,-22.06 -17.56,-30.8 -11.33,-8.7 -27.52,-12.73 -48.57,-12.03z"/>
   <polygon class="fil4" points="2123.49,3004.22 2020.62,3004.22 2020.62,2465.68 1819.68,2832.26 1757.64,2832.26 1558.28,2465.68 1558.28,3004.22 1462.84,3004.22 1462.84,2379.13 1602.28,2379.13 1794.93,2727.22 1980.68,2379.13 2123.49,2379.13 "/>
   <polygon class="fil4" points="3405.21,2997.34 3321.81,2997.34 3321.81,2691.25 3035.48,2691.25 3035.48,2997.34 2952.08,2997.34 2952.08,2372.24 3035.48,2372.24 3035.48,2617.29 3321.81,2617.29 3321.81,2372.24 3405.21,2372.24 "/>
   <path class="fil4" d="M4081.31 2444.35c23.78,27.37 42.27,61.33 55.46,101.89 13.18,40.55 19.77,86.84 19.77,138.87 0,50.73 -6.45,96.44 -19.35,137.28 -12.9,40.85 -31.53,75.09 -55.89,102.89 -25.51,29.1 -55.32,50.44 -89.43,64.34 -33.96,13.9 -71.5,20.78 -112.35,20.78 -42.42,0 -80.53,-7.17 -114.36,-21.36 -33.96,-14.33 -63.2,-35.53 -87.56,-63.77 -24.07,-27.81 -42.56,-61.91 -55.46,-102.47 -12.9,-40.55 -19.35,-86.41 -19.35,-137.71 0,-52.59 6.45,-98.74 19.49,-138.44 13.05,-39.7 31.67,-73.8 55.75,-102.32 24.07,-27.81 53.16,-48.87 87.27,-63.2 34.11,-14.47 72.08,-21.64 114.22,-21.64 42.56,0 80.97,7.45 115.07,22.21 34.25,14.91 63.2,35.69 86.71,62.63zm-11.61 240.75c0,-41.27 -4.45,-77.82 -13.48,-109.63 -8.89,-31.96 -21.5,-58.33 -37.69,-79.25 -16.62,-21.5 -36.55,-37.54 -59.91,-48.29 -23.36,-10.75 -49.58,-16.2 -78.67,-16.2 -30.23,0 -56.75,5.3 -79.24,15.76 -22.5,10.46 -42.42,26.66 -59.91,48.73 -16.47,21.21 -29.09,47.86 -37.97,79.96 -8.74,32.24 -13.18,68.5 -13.18,108.92 0,81.82 17.19,144.45 51.59,187.86 34.54,43.42 80.67,65.21 138.71,65.21 57.9,0 104.04,-21.78 138.3,-65.21 34.24,-43.41 51.45,-106.04 51.45,-187.86z"/>
   <rect class="fil5 str5" x="2210" y="2616.56" width="767.78" height="70.79"/>
   <rect class="fil6" transform="matrix(1.01995 0.253381 -0.263471 1.02245 2555.08 1758.5)" width="44.29" height="1240.12"/>
   <rect class="fil6" transform="matrix(1.48376 -0.215699 0.20318 1.68251 2537.31 1757.59)" width="44.29" height="1240.12"/>
   <rect class="fil6" transform="matrix(0.826085 0.0758458 -0.0934732 0.6703 2926.87 2997.36)" width="44.29" height="1240.12"/>
   <polygon class="fil6" points="4355.37,2988.07 4333.52,3038 2924.37,3038 2924.37,2987.22 4355.37,2987.22 "/>
   <ellipse class="fil0 str1" transform="matrix(0.902442 -0.430811 0.430811 0.902442 479.264 2955.01)" rx="255.26" ry="127.62"/>
   <ellipse class="fil0 str2" transform="matrix(1.07915 -0.745333 0.745333 1.07915 474.258 4212.56)" rx="255.26" ry="127.62"/>
   <ellipse class="fil0 str3" transform="matrix(1.18175 -0.564147 0.564147 1.18175 323.44 3576.32)" rx="255.26" ry="127.62"/>
   <ellipse class="fil0 str3" transform="matrix(0.970734 -0.878902 0.878902 0.970734 1181.26 4432.93)" rx="255.26" ry="127.62"/>
   <ellipse class="fil0 str4" transform="matrix(0.707053 -0.594109 0.594109 0.707053 1923.45 4422.98)" rx="255.26" ry="127.62"/>
   <polygon class="fil4" points="2123.49,3004.22 2020.62,3004.22 2020.62,2465.68 1819.68,2832.26 1757.64,2832.26 1558.28,2465.68 1558.28,3004.22 1462.84,3004.22 1462.84,2379.13 1602.28,2379.13 1794.93,2727.22 1980.68,2379.13 2123.49,2379.13 "/>
   <g>
    <polygon class="fil6" points="1067.37,2987.22 1089.63,3038 2268.82,3038 2268.82,2987.22 "/>
    <polyline class="fil2" points="1089.63,3038 2268.82,3038 2268.82,2987.22 1067.37,2987.22 "/>
   </g>
  </g>
 </g>
</svg>
